<svg xmlns="http://www.w3.org/2000/svg" viewBox="0 0 1440 320"><path fill="#2b2b2b" fill-opacity="1" d="M0,32L26.7,53.3C53.3,75,107,117,160,128C213.3,139,267,117,320,112C373.3,107,427,117,480,128C533.3,139,587,149,640,170.7C693.3,192,747,224,800,208C853.3,192,907,128,960,90.7C1013.3,53,1067,43,1120,53.3C1173.3,64,1227,96,1280,122.7C1333.3,149,1387,171,1413,181.3L1440,192L1440,320L1413.3,320C1386.7,320,1333,320,1280,320C1226.7,320,1173,320,1120,320C1066.7,320,1013,320,960,320C906.7,320,853,320,800,320C746.7,320,693,320,640,320C586.7,320,533,320,480,320C426.7,320,373,320,320,320C266.7,320,213,320,160,320C106.7,320,53,320,27,320L0,320Z"></path></svg>