<?xml version="1.0" standalone="no"?>
<!DOCTYPE svg PUBLIC "-//W3C//DTD SVG 20010904//EN"
 "http://www.w3.org/TR/2001/REC-SVG-20010904/DTD/svg10.dtd">
<svg version="1.0" xmlns="http://www.w3.org/2000/svg"
 width="3264.000000pt" height="1836.000000pt" viewBox="0 0 3264.000000 1836.000000"
 preserveAspectRatio="xMidYMid meet">

<g transform="translate(0.000000,1836.000000) scale(0.100000,-0.100000)"
fill="#000000" stroke="none">
<path d="M29485 13800 c-117 -30 -207 -83 -289 -172 -76 -81 -121 -164 -150
-272 l-21 -81 -13323 -3 -13323 -2 3 -128 3 -127 13315 -2 c7323 -2 13325 -5
13337 -8 14 -3 37 -33 66 -82 25 -43 61 -97 81 -120 48 -55 163 -131 245 -161
81 -30 235 -41 319 -23 84 18 209 83 273 139 48 44 76 81 175 237 33 52 42
141 28 263 -7 59 -21 127 -31 152 -78 194 -232 339 -413 386 -57 15 -243 18
-295 4z"/>
<path d="M16155 11495 c-545 -75 -1019 -344 -1361 -772 -154 -193 -260 -391
-348 -653 -57 -171 -72 -244 -93 -455 -14 -147 -15 -191 -4 -325 18 -235 57
-417 121 -575 4 -11 20 -51 35 -90 88 -231 283 -516 486 -710 309 -295 709
-489 1135 -550 145 -21 464 -21 601 0 365 54 746 223 1021 452 147 122 324
323 426 481 73 114 165 306 208 431 87 258 118 439 118 699 0 254 -30 434
-115 692 -35 104 -170 387 -204 425 -10 11 -29 40 -43 65 -52 89 -287 348
-384 420 -11 8 -40 31 -64 51 -258 207 -642 367 -994 414 -131 18 -412 18
-541 0z m-27 -2059 c1 -619 -1 -852 -9 -862 -9 -11 -45 -14 -144 -14 -74 0
-140 3 -149 6 -14 6 -16 91 -16 859 0 673 3 854 13 859 6 2 77 4 157 3 l145
-2 3 -849z m900 842 c19 -19 17 -1691 -2 -1707 -9 -8 -60 -11 -157 -9 l-144 3
-3 854 c-2 677 0 856 10 863 21 13 282 10 296 -4z"/>
<path d="M23607 10173 c-4 -3 -7 -129 -7 -280 0 -217 -3 -273 -13 -273 -13 0
-85 36 -207 102 -64 35 -255 133 -666 344 -183 93 -214 106 -228 95 -14 -12
-16 -76 -16 -621 0 -335 3 -615 6 -624 7 -20 43 -21 69 -3 11 8 146 78 300
157 154 78 382 196 507 261 125 66 231 119 237 119 8 0 11 -86 11 -273 0 -199
3 -276 12 -285 7 -7 35 -12 63 -12 28 0 56 5 63 12 9 9 12 164 12 634 0 342
-3 629 -6 638 -5 12 -21 16 -68 16 -35 0 -66 -3 -69 -7z"/>
<path d="M29510 10154 c-123 -26 -285 -126 -369 -229 -212 -257 -205 -650 16
-895 67 -73 172 -150 245 -178 110 -42 142 -47 273 -47 140 1 208 16 319 72
340 171 469 627 270 955 -69 113 -182 215 -312 282 -102 52 -302 71 -442 40z
m394 -173 c345 -161 422 -615 151 -886 -212 -212 -535 -216 -755 -9 -114 108
-173 243 -173 399 0 104 16 165 68 264 48 90 138 177 235 226 92 47 137 55
276 51 105 -3 114 -5 198 -45z"/>
<path d="M29272 9528 c-7 -7 -12 -39 -12 -73 0 -34 5 -66 12 -73 9 -9 113 -12
405 -12 446 0 413 -7 413 89 0 85 22 81 -419 81 -288 0 -390 -3 -399 -12z"/>
<path d="M9110 10131 c-13 -25 -14 -1230 -1 -1250 11 -18 121 -16 133 2 4 7 8
131 7 276 0 144 2 265 5 268 2 3 159 -75 348 -172 189 -98 425 -220 526 -272
109 -57 191 -93 205 -91 l22 3 3 617 c2 611 2 617 -18 623 -14 4 -58 -13 -143
-58 -67 -36 -187 -98 -267 -139 -80 -42 -230 -119 -335 -173 -104 -54 -224
-116 -265 -137 l-75 -38 -5 267 c-3 148 -9 274 -13 281 -5 7 -30 12 -62 12
-43 0 -56 -4 -65 -19z"/>
<path d="M2663 10131 c-105 -17 -188 -76 -227 -161 -25 -58 -33 -206 -16 -304
45 -251 250 -603 484 -829 100 -96 137 -117 212 -117 79 0 113 20 224 129 216
214 407 533 461 771 6 25 10 104 11 176 0 112 -3 137 -21 176 -43 95 -118 142
-255 160 -154 21 -295 -11 -381 -86 -16 -14 -34 -26 -38 -26 -5 0 -29 16 -54
35 -69 53 -143 76 -253 80 -52 2 -118 0 -147 -4z m204 -163 c67 -25 158 -109
168 -154 15 -69 20 -74 80 -74 60 0 54 -5 86 80 34 89 152 169 250 170 79 0
169 -53 205 -122 20 -39 17 -139 -6 -208 -26 -77 -110 -255 -156 -333 -35 -57
-133 -196 -158 -223 -6 -7 -33 -38 -61 -70 -63 -75 -141 -144 -162 -144 -18 0
-189 168 -239 234 -16 22 -38 51 -50 65 -38 48 -142 225 -177 301 -50 108 -75
180 -87 253 -11 59 -10 70 10 113 28 64 46 83 105 110 63 29 119 30 192 2z"/>


</g>
</svg>
